<?xml version="1.0" encoding="iso-8859-1"?>
<!-- Generator: Adobe Illustrator 19.0.0, SVG Export Plug-In . SVG Version: 6.00 Build 0)  -->
<svg version="1.1" fill="#467200" id="Capa_1" xmlns="http://www.w3.org/2000/svg" xmlns:xlink="http://www.w3.org/1999/xlink" x="0px" y="0px"
	 viewBox="0 0 512 512" style="enable-background:new 0 0 512 512;" xml:space="preserve">
<g>
	<g>
		<g>
			<polygon points="409.91,127.876 409.91,127.876 409.91,127.877 			"/>
			<path d="M349.402,0H162.464c-33.351,0-60.484,27.133-60.484,60.489l0.023,67.387H409.91l-0.023-67.391
				C409.887,27.133,382.754,0,349.402,0z"/>
		</g>
	</g>
</g>
<g>
	<g>
		<path d="M409.919,157.873H102.013l0.1,293.643c0,33.351,27.133,60.484,60.484,60.484h186.94c33.351,0,60.484-27.133,60.484-60.489
			L409.919,157.873z M344.521,272.568c0,8.283-6.715,14.998-14.998,14.998s-14.998-6.715-14.998-14.998v-63.437
			c0-8.283,6.715-14.998,14.998-14.998s14.998,6.715,14.998,14.998V272.568z"/>
	</g>
</g>
<g>
</g>
<g>
</g>
<g>
</g>
<g>
</g>
<g>
</g>
<g>
</g>
<g>
</g>
<g>
</g>
<g>
</g>
<g>
</g>
<g>
</g>
<g>
</g>
<g>
</g>
<g>
</g>
<g>
</g>
</svg>
